<svg xmlns="http://www.w3.org/2000/svg" fill-rule="evenodd" stroke-linejoin="round" stroke-miterlimit="2" clip-rule="evenodd" viewBox="0 0 64 64" id="Warning">
  <rect width="64" height="64" fill="none"></rect>
  <path d="M190,28C190,27.448 189.552,27 189,27L187,27C186.448,27 186,27.448 186,28L186,30C186,30.552 186.448,31 187,31L189,31C189.552,31 190,30.552 190,30L190,28Z" transform="translate(-156 12)" fill="#134e4a" class="color000000 svgShape"></path>
  <path d="M190,28C190,27.915 189.552,27.846 189,27.846L187,27.846C186.448,27.846 186,27.915 186,28L186,30C186,30.085 186.448,30.154 187,30.154L189,30.154C189.552,30.154 190,30.085 190,30L190,28Z" transform="matrix(1 0 0 6.5 -156 -160)" fill="#134e4a" class="color000000 svgShape"></path>
  <path d="M666,284.333C655.882,284.333 647.667,276.118 647.667,266C647.667,255.882 655.882,247.667 666,247.667C676.118,247.667 684.333,255.882 684.333,266C684.333,273.976 679.229,280.77 672.111,283.289C671.243,283.596 670.789,284.549 671.095,285.416C671.402,286.283 672.356,286.738 673.223,286.431C681.634,283.454 687.667,275.426 687.667,266C687.667,254.042 677.958,244.333 666,244.333C654.042,244.333 644.333,254.042 644.333,266C644.333,277.958 654.042,287.667 666,287.667C666.92,287.667 667.667,286.92 667.667,286C667.667,285.08 666.92,284.333 666,284.333Z" transform="rotate(-45 68.919 1101.692)scale(1.2)" fill="#134e4a" class="color000000 svgShape"></path>
</svg>
